<svg xmlns="http://www.w3.org/2000/svg" version="1.1" xmlns:xlink="http://www.w3.org/1999/xlink" xmlns:svgjs="http://svgjs.dev/svgjs" viewBox="0 0 1920 1080" style="overflow: hidden; height: 85vh;" class="overflow-hidden rounded-md drop-shadow-lg transition duration-300"><rect width="1920" height="1080" fill="#dcdcde"/><g clip-path="url(&quot;#SvgjsClipPath1065&quot;)"><g transform="matrix(7.04171909509728e-17,1.15,-1.15,7.04171909509728e-17,1573.6923913955688,-555.5962501049041)"><path d="M0,-1080C4.836412449500486,-1006.9690347714807,29.06872813030134,-803.206324721106,29.018474697002915,-641.8142086288838C28.96822126370449,-480.4220925366616,-0.40284229113722364,-280.2696069654269,-0.3015205997905639,-111.64730344666705C-0.20019890844390414,56.9750000720928,31.98651330892605,233.03790585875,29.626404845082874,369.91961248367534C27.266296381239698,506.80131910860064,-11.967941517634875,565.1650438518149,-14.462171382849618,709.642936302885C-16.956401248064363,854.1208287539552,11.83205257447627,1072.5332941535005,14.661025653794411,1236.786967190096C17.489998733112554,1401.0406402266915,4.955171368691632,1541.2961357208078,2.5116670930592306,1695.1649745224584C0.06816281742682895,1849.033813324109,0.4186111821765384,2082.527495753743,0,2160L 1920 2160 L 1920 -1080 Z" fill="url(&quot;#SvgjsLinearGradient1063&quot;)"/><path d="M960,-1080C961.8596861473738,-1005.6375676535208,966.3725780357846,-780.1303609831022,971.1581168842433,-633.8254059211248C975.943655732702,-487.52045085914745,991.2706478822938,-365.64736504788164,988.7132330907523,-202.1702696281357C986.1558182992108,-38.69317420838982,951.8529655901445,177.10161306776317,955.8136281349944,347.03716659735056C959.7742906798442,516.9727201269379,1004.1168898576932,670.0495749036706,1012.4772083598508,817.4430515493887C1020.8375268620084,964.8365281951067,1016.8708652430939,1088.8938359445815,1005.97553914794,1231.3980264716588C995.0802130527861,1373.902216998736,954.7678416469178,1517.7011991237962,947.1052517889277,1672.4681947118531C939.4426619309377,1827.23519029991,957.8508752981546,2078.744699118642,960,2160L 1920 2160 L 1920 -1080 Z" fill="url(&quot;#SvgjsLinearGradient1064&quot;)"/></g></g><defs><linearGradient x1="0.1" y1="0" x2="0" y2="1" id="SvgjsLinearGradient1063"><stop stop-color="#dcdcde" offset="0"/><stop stop-color="#dcdcde" offset="0"/></linearGradient><linearGradient x1="0.1" y1="0" x2="0" y2="1" id="SvgjsLinearGradient1064"><stop stop-color="#eeeeef" offset="0"/><stop stop-color="#eeeeef" offset="0.5"/></linearGradient><clipPath id="SvgjsClipPath1065"><rect width="1920" height="1080"/></clipPath></defs></svg>